<?xml version="1.0" encoding="UTF-8" standalone="no"?>
<!DOCTYPE svg PUBLIC "-//W3C//DTD SVG 1.1//EN" "http://www.w3.org/Graphics/SVG/1.1/DTD/svg11.dtd">
<svg width="100%" height="100%" viewBox="0 0 300 345" version="1.1" xmlns="http://www.w3.org/2000/svg" xmlns:xlink="http://www.w3.org/1999/xlink" xml:space="preserve" xmlns:serif="http://www.serif.com/" style="fill-rule:evenodd;clip-rule:evenodd;stroke-linejoin:round;stroke-miterlimit:2;">
    <g id="halloween">
        <g>
            <path d="M36.38,345C16.423,345 0,328.577 0,308.62L0,259.14L148.458,259.14L150.693,197.236L300,197.236L300,253.526C276.517,258.893 267.195,266.323 266.229,289.515C247.649,291.383 235.143,302.085 226.883,318.964C197.796,314.947 175.556,324.624 158.665,345L36.38,345Z" style="fill:#b17127;"/>
            <path d="M36.364,335.302C37.542,335.302 38.5,335.982 38.5,336.82C38.5,337.658 37.542,338.338 36.364,338.338C35.185,338.338 34.228,337.658 34.228,336.82C34.228,335.982 35.185,335.302 36.364,335.302ZM108.4,333.846C110.546,333.846 112.288,334.853 112.288,336.092C112.288,337.332 110.546,338.338 108.4,338.338C106.254,338.338 104.512,337.332 104.512,336.092C104.512,334.853 106.254,333.846 108.4,333.846ZM152.155,332.626C153.344,332.626 154.309,333.226 154.309,333.964C154.309,334.703 153.344,335.302 152.155,335.302C150.965,335.302 150,334.703 150,333.964C150,333.226 150.965,332.626 152.155,332.626ZM26.533,328.937C28.939,328.937 30.893,330.037 30.893,331.392C30.893,332.746 28.939,333.846 26.533,333.846C24.127,333.846 22.174,332.746 22.174,331.392C22.174,330.037 24.127,328.937 26.533,328.937ZM73.789,316.927C76.767,316.927 79.185,318.587 79.185,320.631C79.185,322.675 76.767,324.334 73.789,324.334C70.811,324.334 68.393,322.675 68.393,320.631C68.393,318.587 70.811,316.927 73.789,316.927ZM141.141,315.715C142.942,315.715 144.405,316.603 144.405,317.696C144.405,318.79 142.942,319.678 141.141,319.678C139.34,319.678 137.878,318.79 137.878,317.696C137.878,316.603 139.34,315.715 141.141,315.715ZM55.199,307.238C59.407,307.307 62.788,309.533 62.744,312.206C62.701,314.879 59.249,316.994 55.041,316.925C50.833,316.857 47.452,314.631 47.496,311.957C47.54,309.284 50.991,307.169 55.199,307.238ZM71.715,309.286C73.548,309.286 75.037,310.27 75.037,311.482C75.037,312.694 73.548,313.678 71.715,313.678C69.881,313.678 68.393,312.694 68.393,311.482C68.393,310.27 69.881,309.286 71.715,309.286ZM151.284,306.375C154.412,306.375 156.951,308.011 156.951,310.026C156.951,312.041 154.412,313.678 151.284,313.678C148.156,313.678 145.617,312.041 145.617,310.026C145.617,308.011 148.156,306.375 151.284,306.375ZM13.458,302.58C14.263,302.58 14.916,303.158 14.916,303.872C14.916,304.585 14.263,305.164 13.458,305.164C12.653,305.164 11.999,304.585 11.999,303.872C11.999,303.158 12.653,302.58 13.458,302.58ZM5.239,299.942C6.724,299.942 7.929,300.713 7.929,301.662C7.929,302.611 6.724,303.382 5.239,303.382C3.755,303.382 2.55,302.611 2.55,301.662C2.55,300.713 3.755,299.942 5.239,299.942ZM9.241,292.836C11.214,292.836 12.815,294.071 12.815,295.592C12.815,297.112 11.214,298.347 9.241,298.347C7.269,298.347 5.668,297.112 5.668,295.592C5.668,294.071 7.269,292.836 9.241,292.836Z" style="fill:#a1621b;"/>
            <ellipse cx="177.54" cy="301.08" rx="2.717" ry="2.979" style="fill:#a1621b;"/>
            <ellipse cx="180.925" cy="308.677" rx="1.761" ry="1.762" style="fill:#a1621b;"/>
            <ellipse cx="203.518" cy="314.292" rx="2.425" ry="2.399" style="fill:#a1621b;"/>
            <ellipse cx="197.593" cy="313.092" rx="1.468" ry="1.199" style="fill:#a1621b;"/>
            <ellipse cx="208.561" cy="293.223" rx="2.619" ry="3.046" style="fill:#a1621b;"/>
            <ellipse cx="234.613" cy="292.553" rx="2.442" ry="3.715" style="fill:#a1621b;"/>
            <ellipse cx="240.817" cy="293.245" rx="1.419" ry="1.845" style="fill:#a1621b;"/>
            <ellipse cx="250.674" cy="267.007" rx="2.7" ry="3.209" style="fill:#a1621b;"/>
            <ellipse cx="245.839" cy="273.093" rx="2.135" ry="1.608" style="fill:#a1621b;"/>
            <ellipse cx="286.032" cy="227.252" rx="2.943" ry="3.76" style="fill:#a1621b;"/>
            <g transform="matrix(1,0,0,1.47004,0,-109.623)">
                <ellipse cx="282.454" cy="234.933" rx="2.181" ry="1.71" style="fill:#a1621b;"/>
            </g>
            <g transform="matrix(0.855422,0,0,1,41.5551,0)">
                <ellipse cx="288.887" cy="236.994" rx="1.465" ry="1.257" style="fill:#a1621b;"/>
            </g>
            <ellipse cx="281.174" cy="254.211" rx="1.915" ry="2.015" style="fill:#a1621b;"/>
            <path d="M160.871,301.542C160.105,312.503 156.858,330.416 156.412,341.399C156.39,341.951 156.819,342.416 157.371,342.439C157.922,342.461 158.388,342.032 158.411,341.48C158.856,330.513 162.102,312.626 162.866,301.682C162.905,301.131 162.489,300.653 161.938,300.615C161.388,300.576 160.91,300.992 160.871,301.542ZM167.122,307.577C166.592,312.61 166.299,317.649 166.033,322.702C166.004,323.253 166.428,323.724 166.979,323.753C167.53,323.782 168.001,323.358 168.03,322.807C168.294,317.789 168.585,312.785 169.111,307.787C169.169,307.238 168.77,306.745 168.221,306.687C167.672,306.63 167.18,307.028 167.122,307.577ZM224.724,294.411C224.886,301.495 225.137,308.58 225.282,315.664C225.293,316.216 225.75,316.655 226.302,316.644C226.854,316.632 227.292,316.175 227.281,315.623C227.137,308.537 226.886,301.451 226.724,294.365C226.711,293.813 226.253,293.375 225.701,293.388C225.149,293.401 224.711,293.859 224.724,294.411ZM214.612,293.959C214.612,299.267 214.7,304.58 214.443,309.883C214.417,310.434 214.843,310.903 215.394,310.93C215.945,310.957 216.414,310.531 216.441,309.979C216.699,304.644 216.612,299.299 216.612,293.959C216.612,293.407 216.164,292.959 215.612,292.959C215.06,292.959 214.612,293.407 214.612,293.959ZM207.522,306.636C207.465,307.185 207.409,307.734 207.353,308.283C207.297,308.832 207.698,309.323 208.247,309.378C208.796,309.434 209.287,309.033 209.343,308.484C209.398,307.937 209.455,307.389 209.512,306.842C209.568,306.293 209.169,305.801 208.62,305.744C208.071,305.687 207.579,306.087 207.522,306.636ZM263.232,253.795C263.16,264.33 263.24,274.871 263.883,285.39C263.917,285.941 264.392,286.361 264.943,286.327C265.493,286.293 265.913,285.819 265.88,285.268C265.239,274.794 265.16,264.299 265.232,253.809C265.236,253.257 264.791,252.806 264.239,252.802C263.687,252.798 263.236,253.243 263.232,253.795ZM255.657,260.243C255.898,265.722 256.297,271.192 256.529,276.671C256.552,277.222 257.019,277.651 257.57,277.627C258.122,277.604 258.55,277.137 258.527,276.586C258.295,271.107 257.896,265.635 257.655,260.155C257.631,259.604 257.164,259.176 256.612,259.2C256.061,259.224 255.633,259.691 255.657,260.243ZM252.256,273.601C252.318,274.317 252.369,275.029 252.403,275.746C252.429,276.298 252.897,276.724 253.449,276.699C254,276.673 254.427,276.204 254.401,275.653C254.366,274.908 254.313,274.17 254.248,273.427C254.2,272.877 253.715,272.47 253.165,272.518C252.615,272.566 252.208,273.051 252.256,273.601ZM273.786,245.223C273.786,249.075 273.859,252.89 274.258,256.725C274.315,257.274 274.807,257.674 275.356,257.617C275.905,257.56 276.304,257.067 276.247,256.519C275.856,252.753 275.786,249.005 275.786,245.223C275.786,244.671 275.338,244.223 274.786,244.223C274.234,244.223 273.786,244.671 273.786,245.223ZM291.646,219.667C291.215,227.019 291.372,234.394 290.853,241.739C290.814,242.289 291.23,242.768 291.78,242.807C292.331,242.846 292.809,242.43 292.848,241.88C293.367,234.527 293.211,227.144 293.643,219.784C293.675,219.233 293.254,218.759 292.703,218.727C292.152,218.695 291.678,219.116 291.646,219.667ZM294.327,235.084C294.318,237.085 294.295,239.089 294.194,241.088C294.166,241.639 294.591,242.109 295.142,242.137C295.693,242.165 296.164,241.74 296.191,241.189C296.294,239.16 296.318,237.124 296.327,235.093C296.33,234.541 295.884,234.091 295.332,234.089C294.78,234.086 294.33,234.532 294.327,235.084Z" style="fill:#8e5a1e;"/>
            <path d="M300,208.647C281.689,211.553 270.082,225.724 264.58,250.149C239.763,256.28 229.763,271.084 225.96,289.515C204.254,282.826 182.939,288.668 161.745,298.39L36.38,298.39C16.301,298.39 0,282.089 0,262.01L0,81.38C0,61.301 16.301,45 36.38,45L116.006,45C115.535,42.619 115.224,40.316 115.02,38.24C114.993,37.979 114.98,37.718 114.98,37.456C114.98,33.243 118.447,29.776 122.66,29.776C123.191,29.776 123.72,29.831 124.24,29.94C128.178,30.803 131.557,32.301 134.436,34.123L134.44,34.1C134.834,34.359 135.222,34.626 135.605,34.899C136.716,35.672 137.747,36.491 138.702,37.336C141.049,25.984 147.012,12.387 161.3,2.39C163.52,0.833 166.168,-0.003 168.88,-0.003C173.194,-0.003 177.244,2.111 179.71,5.65C181.263,7.871 182.095,10.516 182.095,13.225C182.095,17.538 179.985,21.589 176.45,24.06C169.435,28.965 164.39,36.764 162.145,43.622C162.921,43.25 163.709,42.906 164.51,42.59L164.502,42.622C170.487,40.197 179.156,38.367 188.65,41.81C190.305,42.419 191.659,43.562 192.548,45L263.62,45C283.699,45 300,61.301 300,81.38L300,208.647Z" style="fill:#de9845;"/>
            <path d="M67.766,292.001C69.112,292.001 70.204,293 70.204,294.231C70.204,295.461 69.112,296.46 67.766,296.46C66.42,296.46 65.327,295.461 65.327,294.231C65.327,293 66.42,292.001 67.766,292.001ZM144.807,289.958C147.673,289.958 150,291.415 150,293.209C150,295.003 147.673,296.46 144.807,296.46C141.942,296.46 139.615,295.003 139.615,293.209C139.615,291.415 141.942,289.958 144.807,289.958ZM128.961,292.001C130.723,292.001 132.154,292.739 132.154,293.648C132.154,294.556 130.723,295.294 128.961,295.294C127.198,295.294 125.767,294.556 125.767,293.648C125.767,292.739 127.198,292.001 128.961,292.001ZM51.218,284.623C55.698,284.623 59.335,287.014 59.335,289.958C59.335,292.903 55.698,295.294 51.218,295.294C46.738,295.294 43.101,292.903 43.101,289.958C43.101,287.014 46.738,284.623 51.218,284.623ZM223.993,282.098C224.914,282.098 225.662,282.664 225.662,283.36C225.662,284.057 224.914,284.623 223.993,284.623C223.071,284.623 222.323,284.057 222.323,283.36C222.323,282.664 223.071,282.098 223.993,282.098ZM213.702,273.713C217.186,273.713 220.015,276.157 220.015,279.168C220.015,282.179 217.186,284.623 213.702,284.623C210.217,284.623 207.388,282.179 207.388,279.168C207.388,276.157 210.217,273.713 213.702,273.713ZM12.143,273.713C14.625,273.713 16.64,275.244 16.64,277.13C16.64,279.017 14.625,280.548 12.143,280.548C9.662,280.548 7.647,279.017 7.647,277.13C7.647,275.244 9.662,273.713 12.143,273.713ZM8.759,263.143C10.627,263.143 12.143,264.204 12.143,265.51C12.143,266.817 10.627,267.877 8.759,267.877C6.891,267.877 5.375,266.817 5.375,265.51C5.375,264.204 6.891,263.143 8.759,263.143ZM291.303,177.459C294.876,177.459 297.776,180.431 297.776,184.092C297.776,187.753 294.876,190.725 291.303,190.725C287.731,190.725 284.831,187.753 284.831,184.092C284.831,180.431 287.731,177.459 291.303,177.459ZM6.766,177.528C8.127,177.528 9.232,178.712 9.232,180.171C9.232,181.629 8.127,182.813 6.766,182.813C5.405,182.813 4.3,181.629 4.3,180.171C4.3,178.712 5.405,177.528 6.766,177.528ZM295.217,168.324C296.629,168.324 297.776,169.592 297.776,171.152C297.776,172.713 296.629,173.981 295.217,173.981C293.805,173.981 292.658,172.713 292.658,171.152C292.658,169.592 293.805,168.324 295.217,168.324ZM4.3,159.672C5.877,159.672 7.158,161.06 7.158,162.771C7.158,164.481 5.877,165.87 4.3,165.87C2.722,165.87 1.441,164.481 1.441,162.771C1.441,161.06 2.722,159.672 4.3,159.672ZM7.158,88.271C9.135,88.271 10.739,89.534 10.739,91.09C10.739,92.645 9.135,93.908 7.158,93.908C5.181,93.908 3.576,92.645 3.576,91.09C3.576,89.534 5.181,88.271 7.158,88.271ZM295.933,78.957C296.95,78.957 297.776,79.852 297.776,80.955C297.776,82.058 296.95,82.954 295.933,82.954C294.917,82.954 294.091,82.058 294.091,80.955C294.091,79.852 294.917,78.957 295.933,78.957ZM289.461,66.747C292.017,66.747 294.091,68.799 294.091,71.327C294.091,73.855 292.017,75.908 289.461,75.908C286.906,75.908 284.831,73.855 284.831,71.327C284.831,68.799 286.906,66.747 289.461,66.747ZM13.916,60.956C15.669,60.956 17.093,62.254 17.093,63.852C17.093,65.45 15.669,66.747 13.916,66.747C12.163,66.747 10.739,65.45 10.739,63.852C10.739,62.254 12.163,60.956 13.916,60.956ZM283.649,58.343C285.119,58.343 286.313,59.514 286.313,60.956C286.313,62.399 285.119,63.57 283.649,63.57C282.178,63.57 280.984,62.399 280.984,60.956C280.984,59.514 282.178,58.343 283.649,58.343ZM24.092,54.267C26.613,54.267 28.66,56.351 28.66,58.919C28.66,61.486 26.613,63.57 24.092,63.57C21.571,63.57 19.525,61.486 19.525,58.919C19.525,56.351 21.571,54.267 24.092,54.267Z" style="fill:#d18d3d;"/>
            <g transform="matrix(0.994877,0.101096,-0.101096,0.994877,29.9796,-17.7818)">
                <g transform="matrix(0.969508,-0.245061,0.245061,0.969508,-58.3913,95.337)">
                    <path d="M260.999,295.677C260.875,294.021 260.798,292.368 260.84,290.706C260.94,286.708 263.501,282.687 267.161,280.933C268.863,280.118 271.036,279.969 272.551,278.796C274.211,277.511 275.418,275.815 277.29,274.792C281.849,272.303 288.111,273.197 290.349,278.359C291.008,279.879 291.361,281.524 291.601,283.158C292.346,288.225 294.49,296.334 290.443,300.403C283.887,306.995 262.227,312.111 260.999,295.677Z" style="fill:#b17127;"/>
                </g>
                <g transform="matrix(0.969508,-0.245061,0.245061,0.969508,-59.8651,89.5064)">
                    <path d="M260.999,295.677C260.875,294.021 260.798,292.368 260.84,290.706C260.94,286.708 263.501,282.687 267.161,280.933C268.863,280.118 271.036,279.969 272.551,278.796C274.211,277.511 275.418,275.815 277.29,274.792C281.849,272.303 288.111,273.197 290.349,278.359C291.008,279.879 291.361,281.524 291.601,283.158C292.346,288.225 294.49,296.334 290.443,300.403C283.887,306.995 262.227,312.111 260.999,295.677Z" style="fill:#de9845;"/>
                </g>
            </g>
            <g transform="matrix(0.994877,0.101096,-0.101096,0.994877,29.9796,-17.7818)">
                <path d="M241.257,321.487C241.531,320.618 242.315,320.467 242.286,319.766C242.245,318.8 242.347,317.687 242.853,316.84C243.976,314.958 247.261,314.448 249.254,314.232C254.755,313.637 260.039,314.838 261.856,319.851C262.218,320.852 261.97,324.549 262.046,325.71C262.075,326.154 262.049,326.591 261.941,327.004C261.417,329.021 259.713,329.869 258.069,330.879C254.642,332.983 250.96,334.326 246.884,333.758C245.657,333.587 244.242,333.449 243.266,332.605C241.8,331.338 241.14,329.037 241.195,326.936C241.215,326.171 241.052,322.139 241.257,321.487Z" style="fill:#b17127;"/>
                <g transform="matrix(1,0,0,1,0,-4.73454)">
                    <path d="M242.755,321.797C242.458,321.161 242.315,320.467 242.286,319.766C242.245,318.8 242.347,317.687 242.853,316.84C243.976,314.958 247.261,314.448 249.254,314.232C254.755,313.637 259.339,317.321 261.156,322.334C261.657,323.717 262.329,325.512 261.941,327.004C261.417,329.021 259.713,329.869 258.069,330.879C254.642,332.983 250.96,334.326 246.884,333.758C245.657,333.587 244.242,333.449 243.266,332.605C241.266,330.877 240.766,327.223 241.536,324.781C241.809,323.912 242.4,322.628 242.755,321.797Z" style="fill:#de9845;"/>
                </g>
            </g>
            <path d="M252.068,326.169C252.49,326.169 252.831,326.511 252.831,326.932C252.831,327.353 252.49,327.695 252.068,327.695C251.647,327.695 251.306,327.353 251.306,326.932C251.306,326.511 251.647,326.169 252.068,326.169ZM255.736,323.763C256.109,323.763 256.411,324.065 256.411,324.438C256.411,324.81 256.109,325.113 255.736,325.113C255.364,325.113 255.061,324.81 255.061,324.438C255.061,324.065 255.364,323.763 255.736,323.763ZM272.138,319.244C273.757,319.244 275.072,320.559 275.072,322.178C275.072,323.798 273.757,325.113 272.138,325.113C270.518,325.113 269.204,323.798 269.204,322.178C269.204,320.559 270.518,319.244 272.138,319.244ZM250.572,319.244C251.819,319.244 252.831,320.257 252.831,321.504C252.831,322.751 251.819,323.763 250.572,323.763C249.325,323.763 248.313,322.751 248.313,321.504C248.313,320.257 249.325,319.244 250.572,319.244ZM278.505,320.946C278.942,320.946 279.297,321.301 279.297,321.738C279.297,322.175 278.942,322.53 278.505,322.53C278.068,322.53 277.713,322.175 277.713,321.738C277.713,321.301 278.068,320.946 278.505,320.946ZM278.652,302.667C279.623,302.667 280.412,303.436 280.412,304.383C280.412,305.33 279.623,306.1 278.652,306.1C277.68,306.1 276.891,305.33 276.891,304.383C276.891,303.436 277.68,302.667 278.652,302.667ZM282.686,298.119C283.941,298.119 284.96,299.138 284.96,300.393C284.96,301.648 283.941,302.667 282.686,302.667C281.431,302.667 280.412,301.648 280.412,300.393C280.412,299.138 281.431,298.119 282.686,298.119Z" style="fill:#d18d3d;"/>
            <path d="M240.493,335.561C240.36,336.182 240.245,336.807 240.116,337.428C240.06,337.699 240.234,337.963 240.504,338.02C240.774,338.076 241.039,337.902 241.095,337.632C241.224,337.012 241.338,336.39 241.471,335.771C241.529,335.501 241.357,335.235 241.087,335.177C240.817,335.119 240.551,335.291 240.493,335.561ZM243.424,336.265C243.381,336.618 243.341,336.972 243.303,337.326C243.273,337.6 243.471,337.847 243.745,337.878C244.02,337.908 244.267,337.709 244.297,337.435C244.335,337.084 244.375,336.734 244.417,336.383C244.449,336.109 244.253,335.86 243.979,335.828C243.705,335.795 243.456,335.991 243.424,336.265ZM272.655,331.075C272.813,331.727 272.965,332.378 273.098,333.035C273.152,333.305 273.416,333.481 273.687,333.426C273.957,333.371 274.132,333.107 274.078,332.836C273.942,332.167 273.788,331.504 273.627,330.84C273.562,330.572 273.292,330.407 273.023,330.472C272.755,330.537 272.59,330.807 272.655,331.075ZM276.533,330.738C276.579,331.027 276.625,331.315 276.669,331.603C276.711,331.876 276.967,332.063 277.24,332.021C277.513,331.979 277.7,331.723 277.658,331.451C277.613,331.161 277.567,330.871 277.521,330.581C277.477,330.308 277.221,330.122 276.948,330.166C276.675,330.209 276.49,330.466 276.533,330.738ZM291.291,323.053C291.332,323.939 291.366,324.828 291.489,325.708C291.527,325.981 291.78,326.172 292.053,326.134C292.326,326.096 292.517,325.843 292.479,325.57C292.361,324.721 292.329,323.863 292.29,323.008C292.278,322.732 292.044,322.518 291.768,322.531C291.492,322.543 291.279,322.777 291.291,323.053Z" style="fill:#8e5a1e;"/>
        </g>
        <g transform="matrix(0.928404,0,0,0.928404,10.7395,12.489)">
            <g transform="matrix(1.07712,0,0,1.07712,-11.5677,-13.4521)">
                <path d="M293.246,205.905C277.276,213.128 266.367,226.589 261.677,247.714C242.267,251.707 230.022,265.2 222.679,285.195C207.674,281.137 192.67,282.556 177.665,289.515L164.965,293.501L47.119,293.501C24.841,293.501 6.754,275.414 6.754,253.135L6.754,90.647C6.754,68.369 24.841,50.281 47.119,50.281C47.119,50.281 252.881,50.281 252.881,50.281C275.159,50.281 293.246,68.369 293.246,90.647L293.246,205.905ZM285.275,197.236L285.275,90.647C285.275,72.768 270.759,58.253 252.881,58.253L47.119,58.253C29.241,58.253 14.725,72.768 14.725,90.647C14.725,90.647 14.725,253.135 14.725,253.135C14.725,271.014 29.241,285.53 47.119,285.53L162.284,285.53L160.251,279.481L274.332,197.236L285.275,197.236Z" style="fill:#432400;fill-opacity:0.18;"/>
            </g>
            <g transform="matrix(1.07712,0,0,1.07712,-11.5677,-13.4521)">
                <path d="M158.773,289.515L177.299,289.515C187.77,278.615 203.812,276.593 222.679,279.074C230.756,261.005 242.871,249.398 260.13,246.02C263.368,227.91 271.975,215.303 285.707,207.949L285.707,198.997L163.66,198.997L158.773,289.515Z" style="fill:#cb7002;"/>
            </g>
            <g transform="matrix(1.07712,0,0,1.07712,-11.5677,-13.4521)">
                <path d="M168.231,289.515L47.119,289.515C27.041,289.515 10.739,273.214 10.739,253.135L10.739,90.647C10.739,70.568 27.041,54.267 47.119,54.267L252.881,54.267C272.959,54.267 289.261,70.568 289.261,90.647L289.261,203.336C272.322,207.852 259.619,222.8 258.465,240.867C240.819,244.599 226.421,257.185 220.151,273.75C216.028,272.712 211.716,272.162 207.278,272.162C191.797,272.162 177.868,278.859 168.231,289.515Z" style="fill:#f7941d;"/>
            </g>
            <g transform="matrix(1.07712,0,0,1.07712,-11.5677,-13.4521)">
                <path d="M92.818,275.063C75.182,268.329 63.05,257.057 57.03,239.067C56.322,236.949 55.738,234.778 55.207,232.609C54.786,230.889 54.47,229.154 54.234,227.4C54.053,226.047 53.906,224.69 53.748,223.335C53.63,222.325 53.507,221.316 53.391,220.306C53.305,219.555 53.226,218.804 53.133,218.055C52.888,216.091 51.407,208.906 47.744,211.499C45.904,212.802 44.876,215.601 44.245,217.683C42.686,222.825 42.047,228.276 41.048,233.545C40.113,238.469 39.959,243.364 39.592,248.343C38.864,258.192 35.817,270.364 46.673,275.835C53.393,279.221 61.876,277.988 69.098,277.645C74.112,277.407 79.372,278.017 84.321,278.823C85.082,278.948 85.856,278.987 86.613,279.133C94.113,280.576 98.436,277.207 92.818,275.063ZM221.794,269.886C221.294,270.942 220.829,272.016 220.399,273.108C220.341,272.829 220.364,272.541 220.489,272.245C220.835,271.427 221.278,270.643 221.794,269.886ZM241.099,247.984C247.445,237.714 251.546,225.414 249.155,213.96C248.024,208.54 253.336,207.133 258.802,218.738C259.252,219.693 260.425,222.579 260.801,223.565C261.201,224.616 261.572,225.678 261.917,226.75C259.986,231.114 258.784,235.871 258.465,240.867C252.194,242.193 246.333,244.638 241.099,247.984ZM203.359,203.639C190.957,202.651 183.082,192.143 177.784,181.979C176.147,178.836 175.096,175.112 173.15,172.162C171.28,169.328 165.162,168.45 162.938,171.267C161.555,173.019 161.142,175.448 160.862,177.602C160.203,182.66 160.769,187.742 161.246,192.787C161.65,197.064 162.132,201.334 162.534,205.61C163.026,210.838 163.115,216.073 168.078,219.172C171.659,221.407 176.824,221.097 180.843,222.323C182.057,222.693 183.175,223.27 184.093,224.163C184.686,224.741 185.149,225.781 186.059,225.853C189.839,226.152 190.669,219.664 193.467,217.899C196.047,216.272 199.331,215.557 202.25,214.82C204.285,214.306 206.696,213.731 208.204,212.155C210.143,210.128 210.701,205.371 207.692,203.891C206.814,203.459 204.289,203.523 203.359,203.639ZM98.366,215.383C97.442,214.765 96.594,214.1 95.84,213.278C89.152,205.99 103.205,200.665 107.721,197.652C113.342,193.901 119.375,189.773 123.046,183.946C125.619,179.861 126.797,175.292 128.029,170.686C128.783,167.869 130.468,164.122 130.063,161.106C129.497,156.9 121.995,155.695 118.811,154.811C114.079,153.496 109.22,152.84 104.446,151.713C101.892,151.11 99.299,150.123 97.023,151.922C92.158,155.768 90.635,163.757 85.065,166.521C80.997,168.54 77.219,166.925 75.357,162.884C71.522,154.565 80.119,145.502 83.119,138.329C86.833,129.452 88.46,120.45 93.682,112.166C95.367,109.493 97.498,105.648 100.788,104.779C105.777,103.462 111.446,105.833 116.461,106.133C119.731,106.329 123.884,104.774 127.074,105.526C130.429,106.317 131.931,109.928 133.601,112.573C136.48,117.134 140.057,120.772 140.598,126.438C140.864,129.213 140.499,132.035 140.26,134.801C138.709,152.727 137.629,170.682 136.926,188.663C136.686,194.789 136.634,200.929 136.199,207.046C135.989,209.989 136.082,213.185 134.909,215.954C132.671,221.238 126.408,220.599 121.775,221.018C118.732,221.294 117.892,224.78 115.568,225.231C111.051,226.107 109.072,221.211 106.456,218.588C105.495,217.625 99.396,216.209 98.366,215.383ZM32.503,181.034C29.941,176.262 28.049,171.082 26.77,165.822C26.28,163.809 25.847,161.779 25.507,159.736C25.227,158.057 25.057,156.365 24.956,154.667C24.875,153.315 24.802,151.955 24.832,150.6C24.929,146.235 25.214,136.26 30.779,134.798C35.995,133.428 39.3,135.464 44.609,135.406C48.784,135.361 52.161,135.794 52.805,130.886C55.021,114.001 61.452,102.005 64.838,95.566C67.765,90 71.2,84.445 75.487,79.805C77.881,77.215 82.242,74.72 83.699,71.489C85.108,68.363 81.638,66.701 78.752,66.739C72.836,66.817 63.321,66.875 57.972,66.509C45.231,65.639 35.54,65.84 27.628,77.135C26.115,79.295 24.797,81.585 23.85,84.052C22.317,88.047 21.98,92.325 21.39,96.528C20.124,105.556 19.85,114.657 19.84,123.76C19.821,141.603 19.057,159.336 19.978,177.158C20.487,187.017 19.745,196.882 20.345,206.735C20.533,209.829 19.601,215.607 21.254,218.512C21.97,219.77 24.426,216.72 24.633,216.378C26.559,213.198 27.122,209.022 27.747,205.415C29.135,197.412 37.507,189.096 32.503,181.034ZM277.351,208.64C277.164,208.55 276.98,208.444 276.802,208.324C274.837,207.01 273.375,204.469 272.311,202.42C270.484,198.899 269.332,195.077 267.491,191.563C266.516,189.701 264.742,187.827 264.682,185.633C264.612,183.042 266.286,180.599 267.645,178.506C271.278,172.57 273.739,166.683 275.162,159.909C275.5,158.297 275.737,153.587 277.763,152.887C278.989,152.463 280.302,154.042 280.769,154.957C282.142,157.648 281.864,161.232 281.782,164.162C281.661,168.443 281.122,172.699 280.945,176.977C280.688,183.187 280.815,189.428 280.826,195.643C280.831,198.495 280.893,201.346 280.821,204.198C280.801,204.988 280.834,205.871 280.678,206.689C279.537,207.289 278.426,207.94 277.351,208.64ZM183.193,145.195C183.012,136.442 182.128,127.875 180.114,119.379C179.161,115.363 176.568,109.822 178.596,105.693C181.029,100.738 189.774,104.121 194.052,102.003C196.432,100.824 197.873,98.949 198.51,96.388C199.046,94.231 198.533,91.262 201.333,90.762C207.583,89.646 212.072,95.985 214.524,100.75C220.007,111.404 226.725,124.168 227.574,136.499C227.789,139.607 225.717,142.348 225.404,145.376C225.229,147.068 225.45,148.774 225.606,150.459C225.928,153.925 226.837,158.104 225.905,161.525C224.766,165.708 219.595,169.398 215.306,167.339C208.803,164.218 210.508,155.603 205.169,152.139C199.52,148.473 183.464,158.248 183.193,145.195ZM220.38,68.884C235.886,77.991 242.264,94.39 246.397,110.863C247.857,116.681 249.318,122.479 250.566,128.346C251.117,130.934 251.335,134.426 253.763,136.041C255.281,137.051 257.793,136.577 259.471,136.309C263.121,135.726 265.296,134.871 269.012,135.315C271.589,135.623 273.371,137.817 274.362,140.057C275.012,141.528 275.218,144.985 277.219,143.282C279.203,141.592 279.975,138.567 280.417,136.11C281.574,129.667 280.631,122.505 279.872,116.05C277.969,99.858 279.399,76.711 261.744,69.167C251.261,64.686 239.272,63.087 228.035,61.737C222.487,61.07 212.499,64.255 220.38,68.884Z" style="fill:#ffa130;"/>
            </g>
            <g transform="matrix(1.07712,0,0,1.07712,-11.5677,-13.4521)">
                <path d="M53.353,251.003C55.647,255.397 58.473,259.439 61.915,263.008C63.064,264.199 64.965,264.234 66.157,263.084C67.348,261.934 67.382,260.034 66.233,258.842C63.19,255.688 60.699,252.11 58.671,248.226C57.905,246.758 56.091,246.189 54.623,246.955C53.156,247.722 52.586,249.536 53.353,251.003ZM45.915,222.394C46.726,229.059 47.384,235.947 49.525,242.35C50.05,243.92 51.751,244.769 53.321,244.244C54.891,243.719 55.74,242.018 55.215,240.448C53.202,234.425 52.634,227.938 51.871,221.669C51.67,220.025 50.174,218.854 48.53,219.054C46.886,219.254 45.714,220.751 45.915,222.394ZM257.606,237.895C257.988,232.097 260.605,227.009 263.407,222.065C264.223,220.624 263.716,218.792 262.275,217.976C260.835,217.16 259.003,217.667 258.186,219.107C254.941,224.835 252.061,230.785 251.619,237.501C251.511,239.153 252.764,240.583 254.416,240.692C256.068,240.8 257.498,239.547 257.606,237.895ZM126.037,109.538C130.457,115.021 135.999,121.691 137.792,128.704C139.517,135.448 137.472,142.818 136.847,149.573C136.38,154.624 136.465,159.677 136.174,164.733C135.789,171.432 135.085,178.12 134.759,184.82C134.503,190.08 134.055,195.323 133.748,200.579C133.488,205.045 133.791,210.819 131.812,214.99C131.144,216.4 129.807,217.593 128.732,218.686C127.571,219.867 127.587,221.768 128.768,222.929C129.949,224.09 131.85,224.074 133.011,222.893C134.531,221.347 136.289,219.554 137.234,217.561C139.522,212.736 139.437,206.095 139.738,200.929C140.046,195.653 140.495,190.391 140.751,185.112C141.077,178.43 141.78,171.759 142.164,165.077C142.451,160.091 142.361,155.107 142.822,150.125C143.507,142.714 145.498,134.617 143.605,127.217C141.609,119.412 135.628,111.875 130.708,105.772C129.669,104.483 127.779,104.28 126.49,105.319C125.201,106.358 124.998,108.249 126.037,109.538ZM166.607,179.156C168.96,187.558 173.135,197.2 179.976,203.067C183.565,206.145 188.338,208.193 192.702,209.812C194.254,210.388 195.982,209.595 196.558,208.043C197.134,206.491 196.342,204.763 194.789,204.187C191.064,202.804 186.946,201.14 183.882,198.512C177.909,193.39 174.439,184.874 172.385,177.538C171.938,175.943 170.281,175.011 168.687,175.458C167.093,175.904 166.161,177.561 166.607,179.156ZM273.968,176.884C273.556,184.905 273.01,192.819 273.632,200.836C273.76,202.487 275.204,203.723 276.855,203.595C278.505,203.467 279.742,202.023 279.614,200.372C279.013,192.614 279.561,184.955 279.96,177.192C280.045,175.538 278.772,174.127 277.118,174.042C275.464,173.957 274.053,175.231 273.968,176.884ZM202.262,100.734C204.938,104.549 206.635,108.822 208.538,113.045C210.523,117.448 212.155,121.818 213.627,126.412C214.299,128.509 215.192,130.571 215.502,132.763C216.093,136.945 214.764,141.078 214.817,145.283C214.874,149.77 216.307,154.205 216.848,158.649C217.049,160.292 218.546,161.464 220.189,161.264C221.833,161.063 223.005,159.566 222.804,157.923C222.289,153.692 220.871,149.478 220.817,145.207C220.76,140.747 222.07,136.358 221.442,131.923C221.085,129.395 220.116,126.999 219.341,124.581C217.799,119.769 216.087,115.192 214.008,110.579C211.95,106.012 210.069,101.415 207.175,97.289C206.224,95.933 204.352,95.604 202.996,96.555C201.64,97.506 201.312,99.378 202.262,100.734ZM92.46,135.413C92.546,135.249 92.628,135.084 92.711,134.919C93.457,133.441 92.863,131.635 91.385,130.889C89.906,130.143 88.101,130.737 87.355,132.215C87.284,132.355 87.214,132.496 87.142,132.636C86.375,134.103 86.945,135.917 88.412,136.684C89.88,137.45 91.694,136.881 92.46,135.413ZM49.658,130.713C49.764,129.753 49.86,128.818 50.059,127.876C50.402,126.256 49.365,124.662 47.745,124.32C46.125,123.977 44.532,125.013 44.189,126.633C43.949,127.77 43.822,128.896 43.694,130.054C43.513,131.7 44.701,133.184 46.347,133.366C47.993,133.547 49.476,132.359 49.658,130.713ZM97.037,124.093C98.526,121.049 100.131,117.97 102.256,115.316C103.291,114.024 103.082,112.134 101.79,111.099C100.497,110.064 98.608,110.273 97.573,111.566C95.173,114.563 93.328,118.02 91.647,121.457C90.92,122.944 91.537,124.742 93.024,125.47C94.512,126.197 96.31,125.58 97.037,124.093ZM242.128,72.747C246.339,74.035 250.415,75.349 254.548,76.849C257.026,77.747 259.985,78.714 261.996,80.491C265.192,83.318 266.157,88.067 267.136,92.05C269.57,101.952 270.741,112.509 271.414,122.674C271.523,124.326 272.953,125.578 274.605,125.469C276.257,125.36 277.51,123.93 277.4,122.277C276.705,111.769 275.479,100.856 272.963,90.618C271.709,85.515 270.065,79.618 265.97,75.996C263.417,73.739 259.74,72.349 256.594,71.208C252.364,69.674 248.193,68.328 243.883,67.009C242.3,66.525 240.621,67.417 240.137,69C239.652,70.583 240.545,72.262 242.128,72.747ZM52.535,115.852C55.553,105.348 59.607,94.347 66.444,85.596C69.626,81.522 73.558,78.213 77.374,74.764C78.602,73.654 78.698,71.755 77.588,70.527C76.477,69.298 74.579,69.203 73.35,70.313C69.278,73.994 65.112,77.555 61.716,81.902C54.41,91.254 49.994,102.971 46.768,114.195C46.311,115.786 47.232,117.45 48.823,117.907C50.414,118.364 52.078,117.443 52.535,115.852ZM54.876,84.791C55.952,83.215 57.045,81.604 58.549,80.405C59.843,79.373 60.056,77.484 59.024,76.189C57.992,74.895 56.103,74.682 54.808,75.714C52.835,77.287 51.331,79.342 49.92,81.409C48.987,82.777 49.339,84.645 50.707,85.578C52.075,86.512 53.943,86.159 54.876,84.791Z" style="fill:#fa4;"/>
            </g>
            <g transform="matrix(1.07712,0,0,1.07712,-11.5677,-13.4521)">
                <path d="M289.261,171.105C280.182,174.639 273.76,181.193 268.624,190.945C266.682,194.632 265.042,200.426 261.863,203.235C261.643,203.429 258.574,202.514 258.282,202.457C254.593,201.745 250.842,201.247 247.077,201.353C233.671,201.729 220.373,204.029 207.644,208.235C191.341,213.621 175.228,223.376 163.338,235.824C158.289,241.109 154.868,248.19 149.585,253.147C149.326,253.39 143.059,252.127 142.576,252.119C136.179,252.016 129.714,252.901 123.555,254.575C109.622,258.364 98.72,265.769 87.987,275.159C82.835,279.666 78.012,284.099 74.202,289.515L47.119,289.515C27.041,289.515 10.739,273.214 10.739,253.135L10.739,249.766C11.316,249.376 11.903,249.001 12.498,248.638C15.98,246.519 20.008,245.29 23.204,242.715C28.295,238.611 31.918,232.402 36.573,227.752C44.32,220.013 53.952,213.977 63.949,209.589C81.941,201.691 101.615,196.554 121.128,194.496C126.371,193.943 131.439,194.262 136.649,194.859C139.892,195.231 144.001,196.247 147.167,195.004C149.261,194.183 150.369,191.663 151.525,189.937C153.555,186.906 155.801,184.019 158.049,181.15C164.44,172.992 172.243,166.487 180.791,160.628C191.889,153.024 204.788,147.749 217.75,144.34C224.444,142.579 232.23,142.564 238.56,139.782C242.33,138.124 244.163,134.075 246.613,130.992C250.223,126.45 254.258,122.602 258.982,119.238C266.02,114.225 273.552,110.26 281.828,107.729C283.929,107.086 286.627,106.447 289.261,105.564L289.261,171.105ZM10.739,227.113L10.739,188.188C17.813,178.349 27.648,170.226 38.989,166.784C43.082,165.542 47.822,164.539 52.153,164.945C55.147,165.226 56.184,167.656 58.827,165.785C64.66,161.653 69.035,155.626 74.419,150.953C86.316,140.627 100.051,131.957 115.728,129.138C123.91,127.666 131.903,126.991 139.908,129.704C142.668,130.639 145.261,132.065 147.503,133.929C147.804,134.179 149.75,136.523 150.08,136.488C153.552,136.128 157.591,129.674 159.511,127.268C165.596,119.645 172.228,113.05 180.134,107.317C188.885,100.971 199.078,97.356 209.824,96.588C213.47,96.327 216.89,96.719 220.342,97.922C220.695,98.045 223.515,99.555 223.643,99.462C226.494,97.385 228.546,93.621 230.675,90.903C234.52,85.994 238.574,81.261 243.126,76.989C251.635,69.005 261.618,62.783 272.918,60.285C279.38,64.561 284.401,70.844 287.088,78.244C276.265,79.218 265.995,83.851 257.331,90.328C251.16,94.941 245.852,101.232 242.175,108.005C239.878,112.238 238.466,118.561 234.329,121.432C234.047,121.628 231.176,119.536 230.663,119.292C228.128,118.081 225.394,117.307 222.645,116.753C214.305,115.07 204.712,116.897 196.94,120.023C184.741,124.928 173.08,133.317 164.345,143.104C159.227,148.839 155.499,156.816 149.375,161.523C145.78,164.286 136.85,159.117 132.762,158.67C122.133,157.509 110.987,159.632 100.742,162.279C91.25,164.731 82.304,168.415 73.735,173.174C59.715,180.96 51.244,192.4 39.929,203.144C36.102,206.778 30.596,207.918 26.348,211.03C20.716,215.157 15.144,220.834 10.739,227.113Z" style="fill:#fcc684;fill-opacity:0.25;"/>
            </g>
            <g transform="matrix(1.07712,0,0,1.07712,-11.5677,-13.4521)">
                <path d="M168.231,289.515L47.119,289.515C27.041,289.515 10.739,273.214 10.739,253.135L10.739,90.647C10.739,70.568 27.041,54.267 47.119,54.267L252.881,54.267C272.959,54.267 289.261,70.568 289.261,90.647L289.261,203.336C289.307,209.116 283.164,210.164 282.965,205.575L282.965,90.647C282.965,74.043 269.485,60.562 252.881,60.562L47.119,60.562C30.515,60.562 17.035,74.043 17.035,90.647C17.035,90.647 17.035,253.135 17.035,253.135C17.035,269.74 30.515,283.22 47.119,283.22L175.012,283.22C179.28,283.223 179.211,289.515 168.231,289.515Z" style="fill:#b25b1f;"/>
            </g>
            <g transform="matrix(1.0596,0,0,1.0596,-8.9405,-10.2833)">
                <path d="M154.32,117.209C154.273,117.258 154.225,117.307 154.177,117.356L154.22,117.313L154.32,117.209ZM149.157,121.343L149.126,121.357L149.157,121.343ZM149.219,121.314L149.188,121.328L149.219,121.314ZM149.281,121.285L149.25,121.3L149.281,121.285ZM149.343,121.256L149.312,121.271L149.343,121.256ZM149.404,121.226L149.373,121.241L149.404,121.226ZM149.465,121.195L149.434,121.211L149.465,121.195ZM149.526,121.165L149.495,121.18L149.526,121.165ZM149.586,121.134L149.556,121.149L149.586,121.134ZM149.646,121.102L149.616,121.118L149.646,121.102ZM149.707,121.07L149.676,121.086L149.707,121.07ZM149.766,121.037L149.736,121.054L149.766,121.037ZM149.826,121.005L149.796,121.021L149.826,121.005ZM149.885,120.971L149.855,120.988L149.885,120.971ZM149.944,120.938L149.915,120.955L149.944,120.938ZM150.003,120.903L149.974,120.921L150.003,120.903ZM150.062,120.869L150.032,120.886L150.062,120.869ZM150.12,120.834L150.091,120.851L150.12,120.834ZM150.178,120.799L150.149,120.816L150.178,120.799ZM150.236,120.763L150.207,120.781L150.236,120.763ZM150.293,120.726L150.265,120.745L150.293,120.726ZM150.351,120.69L150.322,120.708L150.351,120.69ZM150.408,120.653L150.38,120.671L150.408,120.653ZM150.465,120.615L150.437,120.634L150.465,120.615ZM150.521,120.577L150.493,120.596L150.521,120.577ZM150.577,120.539L150.55,120.558L150.577,120.539ZM150.633,120.5L150.606,120.519L150.633,120.5ZM150.689,120.461L150.662,120.48L150.689,120.461ZM150.745,120.421L150.717,120.441L150.745,120.421ZM150.8,120.381L150.773,120.401L150.8,120.381ZM150.855,120.341L150.828,120.361L150.855,120.341ZM150.91,120.3L150.882,120.321L150.91,120.3ZM151.004,120.231C150.989,120.241 150.975,120.252 150.961,120.262L151.004,120.231ZM151.057,120.193L151.034,120.209L151.057,120.193ZM151.132,120.14L151.104,120.159L151.132,120.14ZM151.187,120.1L151.159,120.12L151.187,120.1ZM151.226,120.072L151.212,120.082L151.226,120.072ZM151.252,120.053L151.238,120.063L151.252,120.053ZM151.279,120.033L151.264,120.044L151.279,120.033ZM151.305,120.012L151.29,120.024L151.305,120.012ZM151.333,119.991L151.316,120.004L151.333,119.991ZM151.698,119.682C151.589,119.776 151.479,119.87 151.368,119.963L151.342,119.984C151.351,119.977 151.36,119.97 151.368,119.963C151.479,119.87 151.589,119.776 151.698,119.682ZM152.24,119.207L152.348,119.111C152.146,119.292 151.943,119.471 151.738,119.647C151.907,119.502 152.074,119.355 152.24,119.207ZM152.561,118.917L152.489,118.982L152.561,118.917L152.622,118.862L152.561,118.917ZM153.916,117.621C153.712,117.825 153.506,118.027 153.298,118.227L153.402,118.127C153.575,117.96 153.746,117.791 153.916,117.621ZM154.719,291.31L154.719,59.865C153.492,59.819 152.257,59.781 151.003,59.78L150.538,59.78L149.056,59.79C147.782,59.79 146.527,59.846 145.281,59.912L145.281,122.2C146.582,122.187 147.867,121.908 149.056,121.379L149.056,121.388L149.095,121.371L149.056,121.388C147.867,121.917 146.582,122.197 145.281,122.209L145.281,291.31L154.719,291.31Z" style="fill:#b25b1f;fill-rule:nonzero;"/>
            </g>
            <g transform="matrix(1.07712,0,0,1.07712,-11.5677,-13.4521)">
                <path d="M272.726,212.127C274.652,217.796 267.666,227.791 265.47,220.325C261.067,205.359 254.01,190.339 242.766,178.692L241.466,177.346L241.466,175.489C241.466,135.252 227.457,89.853 190.664,70.867L190.425,70.744C180.284,65.553 168.413,62.359 154.642,61.834L154.642,54.267L170.146,54.267C179.526,56.019 188.563,59.266 196.912,63.885C208.829,70.603 219.075,79.965 226.881,91.199C241.986,112.571 250.435,141.778 250.75,173.604C261.098,184.814 268.062,198.4 272.726,212.127Z" style="fill:#b25b1f;fill-rule:nonzero;"/>
            </g>
            <g transform="matrix(1.0596,0,0,1.0596,-8.9405,-10.2833)">
                <path d="M113.269,61.347L113.265,61.349C113.144,60.934 112.984,60.533 112.788,60.148C112.41,59.431 112.071,58.695 111.74,57.949C96.386,64.442 83.267,75.126 72.933,89.744C57.579,111.45 48.991,141.16 48.67,173.511C18.117,206.64 16.585,260.085 17.036,278.408C18.244,279.836 19.56,281.169 20.971,282.395L20.978,282.402C21.617,282.957 22.276,283.49 22.953,284L22.975,284.017C24.088,284.855 25.251,285.63 26.457,286.337L26.85,285.855L26.709,283.968C26.652,283.279 21.763,214.914 56.748,178.674L58.069,177.305L58.069,175.418C58.069,134.912 72.037,89.253 108.645,69.623L108.727,69.576C119.048,64.053 131.149,60.6 145.281,59.912L145.281,54.25C134.274,54.698 123.434,57.101 113.269,61.347ZM29.695,221.35L29.686,221.382L29.702,221.328L29.695,221.35ZM29.851,220.804L29.839,220.846L29.859,220.776L29.851,220.804ZM30.009,220.258L29.995,220.309L30.019,220.224L30.009,220.258ZM30.17,219.712L30.152,219.772L30.182,219.673L30.17,219.712ZM30.333,219.166L30.312,219.235L30.346,219.122L30.333,219.166ZM30.498,218.62L30.474,218.698L30.512,218.571L30.498,218.62ZM30.665,218.074L30.638,218.16L30.681,218.021L30.665,218.074ZM30.834,217.527L30.805,217.621L30.852,217.471L30.834,217.527ZM31.006,216.981L30.974,217.083L31.025,216.922L31.006,216.981ZM31.181,216.435L31.146,216.544L31.201,216.373L31.181,216.435ZM31.357,215.889L31.32,216.006L31.378,215.824L31.357,215.889ZM31.536,215.344L31.496,215.467L31.559,215.276L31.536,215.344ZM31.717,214.798L31.674,214.928L31.741,214.729L31.717,214.798ZM31.901,214.253L31.856,214.389L31.926,214.182L31.901,214.253ZM32.087,213.708L32.039,213.849L32.113,213.635L32.087,213.708ZM32.276,213.163L32.225,213.31L32.302,213.089L32.276,213.163ZM32.467,212.619L32.414,212.771L32.494,212.543L32.467,212.619ZM32.661,212.075L32.604,212.233L32.688,211.998L32.661,212.075ZM32.857,211.531L32.798,211.694L32.885,211.454L32.857,211.531ZM33.055,210.988L32.994,211.156L33.084,210.91L33.055,210.988ZM33.256,210.446L33.192,210.617L33.285,210.367L33.256,210.446ZM33.46,209.903L33.394,210.079L33.49,209.825L33.46,209.903ZM33.666,209.362L33.597,209.542L33.696,209.283L33.666,209.362ZM33.874,208.821L33.803,209.004L33.905,208.742L33.874,208.821ZM34.086,208.28L34.012,208.468L34.117,208.202L34.086,208.28ZM34.299,207.74L34.224,207.931L34.331,207.662L34.299,207.74ZM34.516,207.201L34.438,207.395L34.547,207.124L34.516,207.201ZM34.735,206.663L34.655,206.86L34.766,206.586L34.735,206.663ZM34.956,206.125L34.874,206.325L34.988,206.049L34.956,206.125ZM35.181,205.588L35.096,205.791L35.213,205.512L35.181,205.588ZM35.408,205.052L35.321,205.257L35.44,204.977L35.408,205.052ZM35.637,204.516L35.548,204.724L35.669,204.443L35.637,204.516ZM35.87,203.982L35.778,204.192L35.902,203.909L35.87,203.982ZM36.105,203.448L36.011,203.66L36.137,203.377L36.105,203.448ZM36.342,202.916L36.247,203.129L36.374,202.845L36.342,202.916ZM36.583,202.384L36.485,202.599L36.615,202.315L36.583,202.384ZM36.826,201.854L36.727,202.07L36.858,201.785L36.826,201.854ZM37.072,201.324L36.971,201.542L37.104,201.257L37.072,201.324ZM37.321,200.795L37.217,201.015L37.352,200.729L37.321,200.795ZM37.572,200.268L37.467,200.489L37.604,200.203L37.572,200.268ZM37.827,199.742L37.72,199.964L37.858,199.678L37.827,199.742ZM38.084,199.217L37.975,199.44L38.115,199.155L38.084,199.217ZM38.344,198.693L38.233,198.917L38.375,198.632L38.344,198.693ZM38.607,198.17L38.494,198.395L38.637,198.111L38.607,198.17ZM38.873,197.649L38.758,197.874L38.903,197.591L38.873,197.649ZM39.142,197.129L39.025,197.354L39.171,197.072L39.142,197.129ZM39.413,196.61L39.295,196.836L39.442,196.555L39.413,196.61ZM39.688,196.093L39.568,196.319L39.717,196.039L39.688,196.093ZM39.965,195.577L39.843,195.804L39.994,195.525L39.965,195.577ZM40.246,195.062L40.122,195.289L40.274,195.012L40.246,195.062ZM40.529,194.549L40.404,194.776L40.557,194.5L40.529,194.549ZM40.816,194.038L40.688,194.265L40.842,193.99L40.816,194.038ZM41.105,193.528L40.976,193.755L41.131,193.482L41.105,193.528ZM41.397,193.019L41.267,193.246L41.423,192.975L41.397,193.019ZM41.693,192.512L41.56,192.74L41.718,192.469L41.693,192.512ZM41.991,192.007L41.857,192.234L42.016,191.966L41.991,192.007ZM42.293,191.504L42.157,191.73L42.317,191.464L42.293,191.504ZM42.597,191.002L42.46,191.228L42.621,190.963L42.597,191.002ZM42.905,190.502L42.766,190.728L42.928,190.465L42.905,190.502ZM43.216,190.004L43.075,190.229L43.238,189.968L43.216,190.004ZM43.53,189.507L43.387,189.733L43.552,189.473L43.53,189.507ZM43.847,189.013L43.703,189.237L43.868,188.98L43.847,189.013ZM44.167,188.52L44.021,188.744L44.188,188.489L44.167,188.52ZM44.49,188.029L44.343,188.253L44.51,187.999L44.49,188.029ZM44.817,187.54L44.668,187.763L44.836,187.512L44.817,187.54ZM45.147,187.053L44.996,187.276L45.165,187.026L45.147,187.053ZM45.479,186.569L45.327,186.79L45.498,186.543L45.479,186.569ZM45.816,186.086L45.662,186.307L45.833,186.061L45.816,186.086ZM46.155,185.605L46,185.825L46.172,185.582L46.155,185.605ZM46.498,185.126L46.341,185.346L46.514,185.104L46.498,185.126ZM46.844,184.65L46.685,184.869L46.859,184.629L46.844,184.65ZM47.193,184.176L47.032,184.394L47.208,184.156L47.193,184.176ZM47.545,183.704L47.383,183.921L47.559,183.685L47.545,183.704ZM47.901,183.234L47.738,183.45L47.914,183.217L47.901,183.234ZM48.26,182.766L48.095,182.981L48.273,182.75L48.26,182.766ZM48.623,182.301L48.456,182.515L48.635,182.286L48.623,182.301ZM48.989,181.838L48.821,182.051L49,181.825L48.989,181.838ZM49.358,181.378L49.188,181.589L49.368,181.365L49.358,181.378ZM49.731,180.92L49.56,181.13L49.74,180.908L49.731,180.92ZM50.107,180.464L49.935,180.673L50.115,180.454L50.107,180.464ZM50.486,180.011L50.313,180.218L50.494,180.002L50.486,180.011ZM50.869,179.56L50.695,179.766L50.876,179.552L50.869,179.56ZM51.256,179.112L51.081,179.315L51.262,179.105L51.256,179.112ZM51.646,178.667L51.47,178.867L51.651,178.661L51.646,178.667ZM52.039,178.224L51.864,178.421L52.043,178.219L52.039,178.224ZM52.436,177.784L52.263,177.976L52.439,177.78L52.436,177.784ZM52.836,177.346L52.667,177.531L52.839,177.343L52.836,177.346ZM53.24,176.911L53.08,177.083L53.242,176.909L53.24,176.911ZM53.647,176.479L53.513,176.622L53.647,176.479ZM113.518,63.166C113.518,63.23 113.517,63.293 113.515,63.357C72.905,81.128 54.323,128.428 54.323,175.399C54.323,128.428 72.933,81.128 113.515,63.357C117.151,61.791 120.881,60.471 124.677,59.404C120.881,60.471 117.151,61.791 113.515,63.357C113.517,63.293 113.518,63.23 113.518,63.166ZM67.717,105.825C64.261,112.655 61.359,120.033 59.044,127.839C56.73,135.644 55.002,143.878 53.895,152.421C56.119,135.353 60.823,119.499 67.717,105.825ZM110.029,68.838C109.57,69.072 109.165,69.321 108.736,69.571C109.196,69.321 109.601,69.073 110.029,68.838ZM113.269,61.347C123.434,57.098 134.274,54.692 145.281,54.24L145.281,52.174L130.597,52.174C124.118,53.403 117.79,55.324 111.722,57.902C112.052,58.648 112.392,59.384 112.769,60.101C112.976,60.499 113.143,60.916 113.269,61.347ZM128.071,58.521C127.512,58.654 126.954,58.794 126.397,58.938C125.841,59.083 125.285,59.233 124.731,59.388C125.839,59.078 126.952,58.788 128.071,58.521ZM130.315,58.014L128.817,58.345C129.315,58.231 129.814,58.12 130.315,58.014ZM132.565,57.566L132.696,57.542L132.571,57.565L132.565,57.566C132.403,57.596 132.242,57.627 132.08,57.658L132.032,57.667L131.943,57.684C131.65,57.741 131.357,57.799 131.065,57.858L132.032,57.667L132.565,57.566ZM133.2,57.451L133.074,57.473L133.271,57.438L133.2,57.451ZM135.275,57.106C135.202,57.118 135.13,57.129 135.057,57.14C134.984,57.152 134.911,57.163 134.838,57.175C134.984,57.152 135.129,57.129 135.275,57.106ZM135.723,57.039L135.698,57.042L135.849,57.02L135.723,57.039ZM138.386,56.683L137.624,56.777C137.878,56.744 138.131,56.713 138.386,56.683ZM138.894,56.624L138.829,56.632L139.021,56.61L138.894,56.624ZM140.932,56.419C140.89,56.423 140.847,56.427 140.805,56.43C140.762,56.434 140.72,56.438 140.677,56.442C140.762,56.434 140.847,56.427 140.932,56.419ZM141.683,56.355C141.601,56.362 141.518,56.369 141.436,56.375C141.353,56.382 141.27,56.389 141.187,56.397C141.353,56.382 141.518,56.368 141.683,56.355ZM142.221,56.313C142.185,56.316 142.148,56.319 142.111,56.322C142.075,56.324 142.039,56.327 142.002,56.33C142.075,56.324 142.148,56.319 142.221,56.313ZM143.488,56.228L143.451,56.23C143.506,56.227 143.561,56.223 143.616,56.22L143.488,56.228ZM113.516,62.975C113.511,62.785 113.497,62.595 113.476,62.406C113.5,62.616 113.513,62.827 113.517,63.039L113.516,62.975ZM113.442,62.146C113.445,62.169 113.449,62.193 113.452,62.217L113.443,62.154L113.442,62.146Z" style="fill:#b25b1f;fill-rule:nonzero;"/>
            </g>
            <path d="M291,332.55C291.48,332.003 291.94,331.443 292.38,330.87C291.94,331.44 291.48,331.99 291.01,332.53L291,332.55Z" style="fill:#471900;fill-rule:nonzero;"/>
            <g transform="matrix(1.0596,0,0,1.0596,-8.9405,-10.2833)">
                <path d="M198.102,226.052L197.933,226.088L188.297,245.85L180.106,229.051C170.343,230.251 160.516,230.847 150.679,230.835C140.796,230.844 130.922,230.249 121.112,229.051L112.92,245.85L103.294,226.125L103.256,226.125C73.849,220.01 57.956,210.11 57.956,210.11C57.956,211.101 57.956,212.092 58.05,213.073L58.05,213.753C58.117,214.697 58.201,215.64 58.315,216.584L58.4,217.141C58.503,217.943 58.636,218.745 58.777,219.538C58.777,219.774 58.853,220.01 58.9,220.246C59.079,221.133 59.268,222.011 59.485,222.879C59.56,223.162 59.636,223.445 59.702,223.719C59.9,224.455 60.108,225.191 60.334,225.918C60.4,226.116 60.448,226.314 60.514,226.512L60.566,226.54C69.639,254.655 101.473,276.072 140.591,279.07L150.642,258.449L160.655,278.975C199.169,275.644 230.445,254.438 239.458,226.588C239.581,226.21 239.694,225.823 239.807,225.436C239.92,225.05 240.109,224.398 240.251,223.87C240.355,223.492 240.458,223.115 240.553,222.728C240.751,221.926 240.921,221.124 241.081,220.312C241.147,219.982 241.204,219.661 241.261,219.368C241.383,218.66 241.497,217.953 241.591,217.235C241.591,217.018 241.666,216.792 241.685,216.565C241.799,215.622 241.883,214.678 241.95,213.8C241.95,213.555 241.95,213.319 241.997,213.073C242.044,212.13 242.082,211.129 242.082,210.148C242.044,210.11 226.929,219.923 198.102,226.052Z" style="fill:#301a00;fill-rule:nonzero;"/>
            </g>
            <g transform="matrix(1.07712,0,0,1.07712,-11.5677,-13.4521)">
                <path d="M66.222,219.371C66.583,222.578 68.707,227.536 69.937,230.491C73.256,238.462 78.539,246.015 85.576,251.128C92.139,255.898 99.693,258.865 106.714,262.83C112.542,266.12 118.863,267.94 125.371,269.42C128.481,270.127 131.722,271.209 134.893,270.262C136.913,269.659 137.404,267.513 138.411,265.87C139.317,264.393 140.638,263.231 141.507,261.739C143.441,258.42 144.794,250.587 149.847,250.562C150.649,250.558 151.463,250.678 152.242,250.862C156.92,251.967 157.227,256.5 159.182,260.055C159.927,261.41 161.033,262.484 161.893,263.761C163.999,266.886 165.567,269.973 169.753,270.437C171.997,270.685 174.134,270.085 176.286,269.551C186.64,266.981 196.121,262.705 205.436,257.592C211.743,254.13 217.964,250.366 222.43,244.578C226.51,239.292 230.739,233.553 232.431,226.992C232.784,225.626 233.103,224.249 233.47,222.888C233.6,222.409 233.748,221.936 233.883,221.459C233.955,221.206 234.344,220.676 234.081,220.694C230.208,220.953 227.558,224.528 224.273,226.123C219.152,228.61 213.116,229.453 207.591,230.641C205.975,230.989 204.372,231.302 202.738,231.55C202.208,231.63 201.185,231.668 200.763,232.083C199.701,233.129 199.792,234.665 199.157,235.921C196.742,240.693 194.248,248.395 188.405,249.932C185.415,250.718 184.338,248.475 182.876,246.426C181.858,244.998 180.319,244.03 179.545,242.398C178.462,240.114 178.985,235.627 175.909,234.997C175.247,234.861 174.577,234.817 173.903,234.816C167.323,234.805 160.855,236.01 154.312,236.527C149.448,236.911 144.393,236.622 139.518,236.453C135.917,236.328 132.19,235.715 128.599,235.335C127.717,235.242 125.572,234.37 124.669,234.715C123.018,235.348 123.045,238.15 122.446,239.547C121.94,240.725 121.115,241.747 120.578,242.915C118.871,246.629 116.716,253.327 111.443,252.989C109.115,252.84 108.125,250.192 106.92,248.574C105.582,246.779 104.19,245.353 103.417,243.203C102.015,239.303 101.508,233.992 98.292,230.985C96.817,229.606 94.968,229.528 93.081,229.182C89.828,228.586 86.499,228.234 83.263,227.581C78.071,226.534 70.651,222.34 66.222,219.371Z" style="fill:#190e00;"/>
            </g>
            <g transform="matrix(1.0596,0,0,1.0596,-8.9405,-10.2833)">
                <path d="M58.749,227.522C68.191,256.128 100.563,278.041 140.435,281.097C141.267,281.161 142.053,280.71 142.418,279.961L150.643,263.087C150.643,263.088 158.828,279.867 158.828,279.867C159.196,280.623 159.992,281.073 160.83,281.001C200.256,277.591 232.165,255.724 241.392,227.215C241.521,226.819 241.64,226.413 241.758,226.008C241.874,225.612 242.067,224.946 242.212,224.404C242.321,224.009 242.429,223.614 242.528,223.21C242.732,222.382 242.909,221.549 243.076,220.706C243.142,220.376 243.199,220.051 243.257,219.755C243.259,219.742 243.261,219.728 243.264,219.715C243.391,218.98 243.509,218.245 243.607,217.501C243.614,217.442 243.619,217.383 243.621,217.324C243.636,217.246 243.696,216.913 243.711,216.734L243.704,216.807C243.821,215.833 243.909,214.859 243.977,213.953C243.981,213.902 243.983,213.851 243.983,213.8C243.983,213.685 243.971,213.573 243.993,213.457C244.011,213.364 244.022,213.27 244.027,213.175C244.076,212.198 244.115,211.163 244.115,210.148C244.115,209.609 243.9,209.091 243.519,208.71C243.371,208.562 242.552,207.685 241.217,208.307C241.175,208.326 240.961,208.446 240.585,208.668C237.888,210.263 223.255,218.626 197.68,224.063L197.676,224.064L197.676,224.064C197.676,224.064 197.515,224.098 197.515,224.098L197.516,224.106C196.589,224.384 196.307,224.779 196.106,225.197C194.691,228.129 188.297,241.211 188.297,241.211C188.297,241.211 181.933,228.16 181.933,228.16C181.553,227.38 180.719,226.927 179.858,227.033C170.178,228.223 160.434,228.814 150.682,228.802C150.68,228.802 150.679,228.802 150.678,228.802C140.877,228.811 131.086,228.221 121.358,227.033C120.497,226.928 119.665,227.38 119.284,228.16L112.919,241.213L105.121,225.234C105.121,225.234 105.213,224.62 103.669,224.145L103.67,224.135C74.698,218.11 59.031,208.384 59.031,208.384C58.404,207.994 57.615,207.974 56.969,208.333C56.324,208.691 55.923,209.371 55.923,210.11C55.923,211.134 55.926,212.159 56.018,213.174C56.017,213.168 56.017,213.753 56.017,213.753C56.017,213.8 56.019,213.848 56.022,213.895C56.091,214.872 56.179,215.849 56.296,216.826L56.387,217.426C56.49,218.218 56.619,219.01 56.758,219.793C56.782,220.069 56.849,220.358 56.906,220.645C56.907,220.646 56.907,220.647 56.907,220.649C57.093,221.566 57.288,222.474 57.513,223.372L57.739,224.247C57.944,225.009 58.159,225.771 58.393,226.523C58.397,226.535 58.401,226.548 58.406,226.561C58.472,226.759 58.519,226.957 58.585,227.155C58.628,227.285 58.683,227.407 58.749,227.522ZM60.084,213.62L60.084,213.693C60.147,214.565 60.225,215.438 60.33,216.311L60.416,216.88C60.516,217.65 60.643,218.42 60.779,219.181C60.795,219.273 60.805,219.367 60.809,219.461C60.823,219.523 60.871,219.732 60.893,219.843C61.065,220.695 61.246,221.538 61.454,222.372C61.53,222.656 61.605,222.939 61.673,223.22C61.861,223.917 62.058,224.614 62.267,225.288C62.331,225.482 62.378,225.675 62.442,225.869L62.501,225.916C71.253,253.038 101.804,273.615 139.372,276.929L148.814,257.558C149.155,256.859 149.864,256.416 150.641,256.416C151.419,256.416 152.128,256.859 152.469,257.557C152.469,257.557 161.866,276.822 161.867,276.822C198.835,273.19 228.833,252.818 237.524,225.962C237.524,225.961 237.524,225.96 237.524,225.959C237.641,225.601 237.748,225.233 237.856,224.865C237.966,224.49 238.149,223.857 238.287,223.344C238.288,223.339 238.289,223.335 238.29,223.331C238.389,222.972 238.488,222.614 238.578,222.246C238.578,222.244 238.579,222.242 238.579,222.24C238.77,221.469 238.933,220.698 239.087,219.918C239.087,219.916 239.087,219.915 239.088,219.913C239.151,219.596 239.206,219.287 239.262,218.995C239.378,218.323 239.486,217.651 239.575,216.97L239.572,217.017C239.595,216.813 239.642,216.604 239.659,216.396C239.661,216.372 239.664,216.347 239.667,216.323C239.773,215.436 239.854,214.548 239.917,213.732L239.917,213.703C234.091,216.819 220.386,223.302 199.327,227.867L190.125,246.741C189.784,247.44 189.075,247.883 188.297,247.883C187.52,247.883 186.811,247.44 186.47,246.741C186.47,246.741 178.912,231.242 178.912,231.242C169.542,232.336 160.114,232.879 150.679,232.868C141.197,232.877 131.724,232.334 122.306,231.241L114.747,246.741C113.989,248.322 111.939,248.238 111.093,246.741L101.906,227.918C80.319,223.327 66.067,216.75 60.084,213.62Z"/>
            </g>
            <g transform="matrix(1.0596,0,0,1.0596,-8.9405,-10.2833)">
                <path d="M238.09,149.21L238.042,149.191C240.883,162.215 237.665,173.917 224.792,177.173C211.919,180.439 203.511,171.69 199.811,158.883L199.792,158.926L179.332,164.074C179.52,164.829 179.738,165.584 179.964,166.32C180.191,167.056 180.36,167.556 180.577,168.208C180.577,168.311 180.644,168.425 180.681,168.528C181.187,169.938 181.763,171.32 182.408,172.671L182.424,172.667C190.169,188.987 206.691,199.435 224.757,199.435C250.462,199.435 271.614,178.283 271.614,152.578C271.614,151.745 271.592,150.912 271.547,150.08L271.593,150.069L271.545,150.04C271.461,148.549 271.31,147.058 271.083,145.567L271.026,145.237C270.923,144.604 270.819,143.963 270.687,143.349C270.555,142.736 270.366,141.83 270.177,141.065L238.09,149.21ZM28.455,150.05L28.455,150.021C28.539,148.53 28.69,147.039 28.917,145.548L28.974,145.218C29.077,144.604 29.162,144.095 29.313,143.33C29.464,142.566 29.634,141.811 29.823,141.046L61.958,149.163L61.995,149.191C59.164,162.215 62.335,173.917 75.208,177.173C88.073,180.437 96.479,171.7 100.22,158.905L100.189,158.836L120.668,164.027C120.48,164.782 120.225,165.603 120.036,166.273C119.847,166.943 119.64,167.556 119.423,168.16C119.385,168.264 119.319,168.377 119.319,168.481C118.813,169.89 118.237,171.273 117.592,172.624L117.592,172.587L117.592,172.634C109.854,188.973 93.322,199.435 75.243,199.435C49.538,199.435 28.386,178.283 28.386,152.578C28.386,151.735 28.409,150.892 28.455,150.05Z" style="fill:#301a00;fill-rule:nonzero;"/>
            </g>
            <g transform="matrix(1.07712,0,0,1.07712,-11.5677,-13.4521)">
                <path d="M184.683,169.095C185.664,167.23 187.878,167.694 189.598,167.213C191.496,166.683 194.063,164.169 196.172,165.687C197.886,166.921 198.159,170.022 199.372,171.733C200.215,172.921 201.361,173.859 202.164,175.079C203.623,177.292 204.36,179.517 206.886,180.804C208.776,181.767 211.05,181.644 213.061,182.246C215.098,182.857 217.265,183.858 219.442,183.642C221.235,183.464 222.862,182.5 224.588,182.04C226.504,181.529 228.499,181.537 230.281,180.553C232.175,179.508 233.566,177.964 235.328,176.766C237.529,175.27 239.926,174.491 240.847,171.671C241.382,170.033 240.998,168.321 241.336,166.659C241.826,164.257 243.028,162.167 243.212,159.645C243.363,157.572 242.204,154.734 244.507,153.526C245.995,152.745 247.675,153.077 249.248,152.62C252.538,151.663 255.399,150.009 258.823,149.327C260.155,149.062 261.969,148.722 263.132,149.624C265.377,151.367 264.011,154.763 263.635,157.007C263.266,159.208 263.563,161.503 262.957,163.663C262.371,165.747 260.953,167.421 260.165,169.423C259.445,171.252 259.107,173.301 257.926,174.923C256.782,176.495 255.069,177.598 253.912,179.193C252.473,181.176 251.671,183.699 249.645,185.222C246.972,187.233 243.703,187.631 240.74,188.97C236.763,190.767 233.218,193.193 228.827,193.981C226.499,194.399 223.97,194.028 221.608,194.104C219.53,194.17 217.787,194.691 215.714,194.12C213.535,193.52 211.818,192.016 209.713,191.279C207.5,190.504 205.052,190.609 202.996,189.36C201.342,188.356 200.39,186.658 198.894,185.48C197.211,184.154 195.105,183.337 193.682,181.708C192.427,180.27 192.226,178.452 191.193,176.928C190.423,175.791 189.192,175.372 188.184,174.528C187.094,173.616 185.174,170.419 184.683,169.095Z" style="fill:#190e00;"/>
            </g>
            <g transform="matrix(-1.07712,0,0,1.07712,312.336,-13.4521)">
                <path d="M184.683,169.095C185.664,167.23 187.878,167.694 189.598,167.213C191.496,166.683 194.063,164.169 196.172,165.687C197.886,166.921 198.159,170.022 199.372,171.733C200.215,172.921 201.361,173.859 202.164,175.079C203.623,177.292 204.36,179.517 206.886,180.804C208.776,181.767 211.05,181.644 213.061,182.246C215.098,182.857 217.265,183.858 219.442,183.642C221.235,183.464 222.862,182.5 224.588,182.04C226.504,181.529 228.499,181.537 230.281,180.553C232.175,179.508 233.566,177.964 235.328,176.766C237.529,175.27 239.926,174.491 240.847,171.671C241.382,170.033 240.998,168.321 241.336,166.659C241.826,164.257 243.028,162.167 243.212,159.645C243.363,157.572 242.204,154.734 244.507,153.526C245.995,152.745 247.675,153.077 249.248,152.62C252.538,151.663 255.399,150.009 258.823,149.327C260.155,149.062 261.969,148.722 263.132,149.624C265.377,151.367 264.011,154.763 263.635,157.007C263.266,159.208 263.563,161.503 262.957,163.663C262.371,165.747 260.953,167.421 260.165,169.423C259.445,171.252 259.107,173.301 257.926,174.923C256.782,176.495 255.069,177.598 253.912,179.193C252.473,181.176 251.671,183.699 249.645,185.222C246.972,187.233 243.703,187.631 240.74,188.97C236.763,190.767 233.218,193.193 228.827,193.981C226.499,194.399 223.97,194.028 221.608,194.104C219.53,194.17 217.787,194.691 215.714,194.12C213.535,193.52 211.818,192.016 209.713,191.279C207.5,190.504 205.052,190.609 202.996,189.36C201.342,188.356 200.39,186.658 198.894,185.48C197.211,184.154 195.105,183.337 193.682,181.708C192.427,180.27 192.226,178.452 191.193,176.928C190.423,175.791 189.192,175.372 188.184,174.528C187.094,173.616 185.174,170.419 184.683,169.095Z" style="fill:#190e00;"/>
            </g>
            <g transform="matrix(1.0596,0,0,1.0596,-8.9405,-10.2833)">
                <path d="M237.292,151.08L237.289,151.079C236.677,150.835 236.203,150.3 236.056,149.624C238.639,161.467 235.999,172.242 224.294,175.202C224.293,175.202 224.293,175.202 224.292,175.203C212.587,178.172 205.745,169.768 201.764,158.319C201.487,157.522 200.469,156.666 199.296,156.954L178.836,162.102C177.748,162.376 177.087,163.479 177.359,164.567C177.557,165.357 177.784,166.147 178.021,166.918C178.253,167.672 178.427,168.184 178.649,168.85L178.648,168.846C178.684,168.976 178.727,169.103 178.771,169.223C179.296,170.689 179.899,172.135 180.574,173.547C180.61,173.624 180.652,173.698 180.698,173.769C188.824,190.665 205.992,201.469 224.757,201.469C251.577,201.469 273.647,179.399 273.647,152.578C273.647,151.709 273.624,150.84 273.577,149.972L273.575,149.925C273.487,148.37 273.329,146.816 273.093,145.262L273.093,145.262L273.086,145.216L273.032,144.901C272.923,144.238 272.813,143.565 272.674,142.921C272.539,142.292 272.344,141.362 272.151,140.578C272.021,140.052 271.687,139.6 271.222,139.322C270.758,139.043 270.202,138.962 269.677,139.095L237.589,147.239C236.596,147.492 235.945,148.444 236.072,149.462C236.164,150.199 236.644,150.803 237.292,151.08ZM26.968,144.884L26.969,144.879C27.076,144.247 27.163,143.723 27.319,142.936C27.476,142.141 27.653,141.355 27.849,140.559C27.979,140.034 28.313,139.582 28.777,139.303C29.24,139.025 29.796,138.943 30.321,139.075L62.455,147.192C62.619,147.233 62.772,147.293 62.915,147.369L62.917,147.37L62.938,147.382L62.976,147.403L62.982,147.406L63,147.417L63.035,147.439L63.054,147.45L63.07,147.461L63.088,147.472L63.103,147.483L63.13,147.502L63.171,147.532L63.179,147.537L63.18,147.538C63.746,147.964 64.067,148.671 63.975,149.414C63.964,149.5 63.948,149.585 63.927,149.667L63.982,149.623C61.408,161.465 64.001,172.242 75.706,175.202C75.707,175.202 75.707,175.202 75.708,175.203C87.408,178.171 94.867,169.972 98.269,158.335C98.639,157.07 99.708,156.618 100.688,156.865C113.757,160.162 121.168,162.056 121.168,162.056C122.254,162.331 122.912,163.433 122.641,164.52C122.447,165.294 122.186,166.137 121.993,166.824C121.79,167.542 121.568,168.2 121.336,168.848L121.299,168.939C121.282,169.016 121.259,169.093 121.232,169.168C120.704,170.641 120.101,172.087 119.426,173.5L119.422,173.508L119.429,173.504C111.355,190.552 94.106,201.469 75.243,201.469C48.423,201.469 26.353,179.399 26.353,152.578C26.353,151.698 26.377,150.819 26.424,149.94L26.425,149.906C26.513,148.351 26.968,144.884 26.968,144.884L26.968,144.884ZM240.414,150.717L268.651,143.55C268.667,143.63 268.684,143.705 268.699,143.777C268.824,144.359 268.922,144.967 269.02,145.566C269.02,145.566 269.024,145.589 269.024,145.589L269.079,145.908C269.292,147.322 269.435,148.739 269.516,150.156C269.555,150.852 269.575,151.268 269.517,150.189C269.559,150.984 269.581,151.781 269.581,152.578C269.581,177.168 249.346,197.402 224.757,197.402C207.474,197.402 191.67,187.408 184.261,171.796L184.243,171.796C183.628,170.506 183.077,169.187 182.595,167.842L182.558,167.75C182.544,167.688 182.527,167.626 182.506,167.565C182.294,166.929 182.128,166.441 181.907,165.722C181.888,165.66 181.869,165.599 181.85,165.537L198.453,161.359C202.772,174.251 211.902,182.54 225.291,179.144C238.684,175.756 242.755,164.111 240.414,150.717ZM59.633,150.672C57.279,164.086 61.301,175.752 74.709,179.144C88.122,182.546 97.26,174.221 101.601,161.291L118.147,165.485C118.123,165.566 118.101,165.645 118.079,165.722C117.904,166.343 117.711,166.912 117.509,167.473C117.47,167.582 117.428,167.706 117.393,167.831C116.915,169.158 116.368,170.468 115.757,171.748L115.754,171.764C108.352,187.394 92.538,197.402 75.243,197.402C50.654,197.402 30.419,177.168 30.419,152.578C30.419,151.772 30.441,150.965 30.485,150.16L30.413,150.228L30.437,150.185L30.44,150.179L30.484,150.137C30.565,148.714 30.709,147.291 30.925,145.868L30.976,145.571L30.975,145.571L30.978,145.557C31.079,144.961 31.161,144.467 31.308,143.724C31.321,143.659 31.334,143.594 31.347,143.528L59.633,150.672ZM237.31,151.087L237.292,151.08L237.289,151.079L237.31,151.087ZM30.919,145.901L30.896,146.013L30.911,145.946L30.919,145.901Z"/>
            </g>
            <g transform="matrix(1.0596,0,0,1.0596,-8.9405,-10.2833)">
                <path d="M141.739,42.577C138.968,38.379 134.767,34.357 127.878,32.847C127.387,32.744 126.887,32.692 126.386,32.692C122.41,32.692 119.138,35.964 119.138,39.94C119.138,40.187 119.151,40.434 119.176,40.68C119.837,47.399 118.267,54.995 123.307,61.177C115.54,63.808 106.898,72.144 103.121,79.423C102.628,80.421 102.371,81.519 102.371,82.633C102.371,86.213 105.024,89.284 108.566,89.804C115.352,90.861 124.94,91.37 132.245,87.831C132.882,92.737 134.89,97.853 137.862,102.723C139.399,105.243 143.268,108.277 146.22,108.277C147.931,108.277 149.589,107.67 150.897,106.566C155.877,102.342 159.09,94.206 160.609,87.855C167.101,93.687 177.888,94.289 185.325,94.553C185.407,94.556 185.489,94.558 185.571,94.558C189.547,94.558 192.819,91.286 192.819,87.31C192.819,86.618 192.72,85.93 192.525,85.267C190.118,77.319 183.597,70.719 176.322,66.716C181.019,63.495 185.162,59.533 188.59,54.985C189.598,53.703 190.146,52.119 190.146,50.489C190.146,47.446 188.237,44.71 185.382,43.66C173.425,39.324 162.854,43.848 157.84,46.748C159.949,38.072 164.548,26.727 171.053,22.179C174.389,19.846 177.709,18.061 178.618,14.093C179.216,11.486 179.153,8.337 177.612,6.297C175.842,3.953 173.524,2.387 169.453,2.387C166.894,2.387 164.395,3.176 162.3,4.646C148.439,14.344 143.478,30.201 141.739,42.577Z" style="fill:#246341;fill-rule:nonzero;"/>
            </g>
            <g transform="matrix(1.07712,0,0,1.07712,-11.5677,-13.4521)">
                <path d="M145.358,59.021C146.584,57.374 147.913,55.769 148.168,54.993C150.424,48.134 152.011,41.009 154.622,34.275C156.525,29.368 159.102,24.785 162.032,20.426C164.261,17.109 168.687,10.99 173.553,12.233C175.614,12.76 175.395,15.906 174.531,17.226C172.268,20.683 168.013,22.371 165.277,25.446C159.313,32.149 154.642,48.732 152.535,56.44C169.086,48.207 173.588,48.224 179.098,49.463C180.812,49.849 182.979,51.218 183.021,53.235C183.093,56.651 175.995,62.285 172.786,64.509C167.199,68.382 167.28,69.136 167.28,69.136C167.28,69.136 175.861,73.466 181.077,78.751C184.565,82.285 186.11,86.716 184.201,88.825C182.177,91.06 171.582,91.293 165.893,87.717C159.164,83.486 157.126,81.18 157.126,81.18C156.676,84.023 154.129,92.663 151.898,97.549C150.938,99.651 148.255,101.827 146.808,98.743C143.184,91.019 143.96,81.148 144.679,76.092C139.39,80.455 131.814,83.255 128.853,83.893C127.018,84.288 123.773,84.253 123.441,81.622C123.183,79.575 124.545,77.872 125.932,76.544C128.285,74.29 138.157,67.134 138.146,67.018C132.544,64.594 132.786,53.021 134.352,52.109C136.983,50.578 141.033,54.748 145.358,59.021Z" style="fill:#25774b;"/>
            </g>
            <g transform="matrix(1.07712,0,0,1.07712,-11.5677,-13.4521)">
                <path d="M151.496,96.796C154.002,90.437 156.909,81.114 155.865,80.755C154.821,80.397 149.801,89.957 147.754,95.385C147.364,96.417 147.887,97.572 148.919,97.962C149.952,98.351 151.107,97.829 151.496,96.796ZM175.782,77.654C174.946,78.375 177.216,82.209 178.064,83.377C178.373,83.802 178.653,84.24 178.841,84.676C178.952,84.934 179.099,85.171 179.009,85.395C178.965,85.506 177.449,87.457 178.018,88.403C178.588,89.348 182.335,87.767 182.668,87.01C183.16,85.896 183.117,84.637 182.62,83.35C181.814,81.27 176.618,76.934 175.782,77.654ZM180.114,51.374C179.11,50.916 175.847,54.711 170.057,59.388C167.779,61.229 163.066,66.961 163.606,67.924C164.147,68.887 172.1,62.936 174.438,60.99C179.41,56.851 181.119,51.831 180.114,51.374ZM156.434,51.276C157.289,44.758 159.579,36.445 163.437,30.873C164.429,29.441 165.6,27.981 166.88,26.799C167.93,25.83 169.118,25.002 170.292,24.193C171.843,23.125 173.438,22.028 174.677,20.59C176.243,18.774 177.43,16.099 177.627,13.495C177.846,10.584 172.024,5.754 171.431,6.685C170.837,7.615 171.111,8.853 172.042,9.446C173.381,10.3 173.747,11.744 173.638,13.194C173.505,14.95 172.703,16.754 171.647,17.979C170.631,19.158 169.295,20.023 168.023,20.898C166.693,21.815 165.356,22.763 164.167,23.86C162.676,25.236 161.303,26.928 160.149,28.596C155.954,34.653 153.096,52.855 154.191,52.999C155.285,53.142 156.29,52.37 156.434,51.276Z" style="fill:#2e955e;"/>
            </g>
            <g transform="matrix(1.0596,0,0,1.0596,-8.9405,-10.2833)">
                <path d="M141.739,42.577C138.968,38.379 134.767,34.357 127.878,32.847C127.387,32.744 126.887,32.692 126.386,32.692C122.41,32.692 119.138,35.964 119.138,39.94C119.138,40.187 119.151,40.434 119.176,40.68C119.837,47.399 118.267,54.995 123.307,61.177C115.54,63.808 106.898,72.144 103.121,79.423C102.628,80.421 102.371,81.519 102.371,82.633C102.371,86.213 105.024,89.284 108.566,89.804C115.352,90.861 124.94,91.37 132.245,87.831C132.882,92.737 134.89,97.853 137.862,102.723C139.399,105.243 143.268,108.277 146.22,108.277C147.931,108.277 149.589,107.67 150.897,106.566C155.877,102.342 159.09,94.206 160.609,87.855C167.101,93.687 177.888,94.289 185.325,94.553C185.407,94.556 185.489,94.558 185.571,94.558C189.547,94.558 192.819,91.286 192.819,87.31C192.819,86.618 192.72,85.93 192.525,85.267C190.118,77.319 183.597,70.719 176.322,66.716C181.019,63.495 185.162,59.533 188.59,54.985C189.598,53.703 190.146,52.119 190.146,50.489C190.146,47.446 188.237,44.71 185.382,43.66C173.425,39.324 162.854,43.848 157.84,46.748C159.949,38.072 164.548,26.727 171.053,22.179C174.389,19.846 177.709,18.061 178.618,14.093C179.216,11.486 179.153,8.337 177.612,6.297C175.842,3.953 173.524,2.387 169.453,2.387C166.894,2.387 164.395,3.176 162.3,4.646C148.439,14.344 143.478,30.201 141.739,42.577ZM139.194,44.257L143.637,50.989L144.759,43.002C146.4,31.323 150.968,16.297 164.048,7.144L164.049,7.143C165.633,6.032 167.52,5.437 169.453,5.437C172.301,5.437 173.94,6.495 175.178,8.134C176.217,9.51 176.049,11.655 175.646,13.412C175.268,15.058 174.22,16.111 173,17.078C171.87,17.974 170.588,18.783 169.306,19.679L169.306,19.679C162.301,24.578 157.148,36.685 154.876,46.027L153.191,52.958L159.366,49.388C163.914,46.759 173.491,42.596 184.333,46.524C185.989,47.135 187.096,48.723 187.096,50.489C187.096,51.436 186.778,52.356 186.193,53.101L186.174,53.125C182.926,57.434 179.022,61.166 174.597,64.201L170.329,66.84L174.851,69.388C181.443,73.015 187.416,78.937 189.602,86.137C189.713,86.518 189.77,86.913 189.77,87.31C189.77,89.613 187.874,91.508 185.571,91.508C185.524,91.508 185.476,91.507 185.429,91.506C178.592,91.263 168.615,90.947 162.646,85.586L158.834,82.161L157.642,87.146C156.261,92.925 153.458,100.392 148.927,104.238C148.17,104.876 147.211,105.227 146.22,105.227C145.514,105.227 144.747,104.862 143.99,104.418C142.538,103.565 141.17,102.29 140.465,101.135C137.73,96.652 135.855,91.954 135.269,87.439L134.724,83.242L130.915,85.087C124.168,88.356 115.303,87.767 109.036,86.791L109.022,86.789C106.957,86.485 105.421,84.707 105.421,82.633C105.421,82.006 105.561,81.387 105.832,80.821C109.311,74.136 117.179,66.473 124.285,64.065L128.447,62.655L125.67,59.25C123.569,56.673 122.903,53.781 122.636,50.853C122.316,47.334 122.542,43.748 122.211,40.381L122.188,39.94C122.188,37.636 124.083,35.741 126.386,35.741C126.668,35.741 126.949,35.77 127.225,35.826C133.187,37.137 136.801,40.631 139.194,44.257Z" style="fill:#004a22;"/>
            </g>
        </g>
    </g>
</svg>
